Coordinates
version=1
nRows=14
nColumns=42
inDegrees=yes

Units are S.I. units (second, meters, Newtons, ...)
If the header above contains a line with 'inDegrees', this indicates whether rotational values are in degrees (yes) or radians (no).

endheader
time	pelvis_tilt	pelvis_list	pelvis_rotation	pelvis_tx	pelvis_ty	pelvis_tz	hip_flexion_r	hip_adduction_r	hip_rotation_r	knee_angle_r	knee_adduction_r	knee_angle_r_beta	ankle_angle_r	subtalar_angle_r	mtp_angle_r	hip_flexion_l	hip_adduction_l	hip_rotation_l	knee_angle_l	knee_adduction_l	knee_angle_l_beta	ankle_angle_l	subtalar_angle_l	mtp_angle_l	lumbar_extension	lumbar_bending	lumbar_rotation	arm_flex_r	arm_add_r	arm_rot_r	elbow_flex_r	pro_sup_r	wrist_flex_r	wrist_dev_r	arm_flex_l	arm_add_l	arm_rot_l	elbow_flex_l	pro_sup_l	wrist_flex_l	wrist_dev_l
      0.00000000	     10.10642032	     -0.35629291	     -6.85847902	     -1.03950898	      0.84721130	     -0.33933829	     11.90964125	     -4.08780821	    -14.73263663	     52.59189499	     -8.34938496	      0.91790173	     10.79365991	     -3.22330196	     -9.56859871	    -11.94166642	      2.03731603	     -7.27112408	      8.27799132	      6.18494101	      0.14447820	     15.18075104	     -6.66667169	     -9.56859871	    -21.35085799	     -2.19440824	      5.35940059	      1.05634624	    -14.68942626	     -7.79834679	     34.82368160	     90.00000001	      0.00000000	      0.00000000	      1.37301289	     -7.64122907	    -31.91517878	     29.42240669	     90.00000001	      0.00000000	      0.00000000
      0.01000000	      9.46698132	     -0.18340065	     -6.52765922	     -1.02559935	      0.84630966	     -0.34055160	     13.90331533	     -4.07288881	    -15.01417338	     49.93127548	     -7.46522785	      0.87146516	     10.99235484	     -3.14120125	     -9.53579545	    -12.53515704	      2.41188016	     -7.95747621	      7.79597510	      5.91931944	      0.13606543	     15.41698743	     -6.16123842	     -9.53579545	    -20.58307589	     -1.96225405	      4.48938638	      0.84979214	    -14.61117156	     -7.79910138	     34.76624732	     90.00000001	      0.00000000	      0.00000000	      1.99050060	     -7.47568755	    -31.27213688	     30.51934264	     90.00000001	      0.00000000	      0.00000000
      0.02000000	      9.87357940	     -0.98804216	     -5.87274742	     -1.01067162	      0.84654523	     -0.34089767	     13.76193693	     -2.83783436	    -15.39930439	     45.95854130	     -6.39928184	      0.80212787	     11.29508382	     -3.49928773	     -9.32641633	    -15.09391306	      1.45429858	     -7.74031812	      6.16589570	      6.28819479	      0.10761518	     16.35877281	     -4.19645997	     -9.32641633	    -21.01665708	     -0.83360819	      3.42612730	      1.07628710	    -14.46637643	     -8.09216279	     34.18329624	     90.00000001	      0.00000000	      0.00000000	      0.89208076	     -8.19084909	    -24.39078021	     34.11708524	     90.00000001	      0.00000000	      0.00000000
      0.03000000	      9.85708255	     -1.16420644	     -5.34935588	     -0.99599201	      0.84555517	     -0.34172095	     14.31010426	     -2.48929738	    -15.72917742	     42.24015768	     -5.20400683	      0.73722983	     11.39227543	     -3.81888715	     -9.22686404	    -16.70461762	      1.30582136	     -8.01243566	      5.25820941	      6.32813182	      0.09177307	     16.92882054	     -2.94600027	     -9.22686404	    -20.90450709	     -0.32098568	      2.36396073	      1.12616578	    -14.38247941	     -8.18721232	     33.78769322	     90.00000001	      0.00000000	      0.00000000	      0.80716727	     -8.47675711	    -22.03308373	     36.57899549	     90.00000001	      0.00000000	      0.00000000
      0.04000000	      9.19235288	     -0.59368580	     -5.14040590	     -0.98153389	      0.84296476	     -0.34268326	     16.03524547	     -3.16287732	    -16.39438106	     39.22941112	     -4.17312491	      0.68468239	     11.43114083	     -3.76828216	     -9.20155568	    -17.15075137	      2.01081651	     -8.83920233	      5.07992958	      6.29855059	      0.08866150	     17.17514575	     -2.65469790	     -9.20155568	    -19.96996201	     -0.61520909	      1.58695146	      0.75277763	    -14.36527217	     -8.20165525	     33.74913432	     90.00000001	      0.00000000	      0.00000000	      1.45294749	     -8.49667288	    -21.62062448	     37.82888243	     90.00000001	      0.00000000	      0.00000000
      0.05000000	      9.75243111	     -1.17119982	     -4.36060285	     -0.96638870	      0.84201268	     -0.34316428	     15.08550201	     -2.34373101	    -16.58982115	     34.33884239	     -2.66204810	      0.59932586	     11.54761726	     -3.84422205	     -9.10382874	    -19.58411595	      1.32515189	     -8.74977782	      3.95174580	      6.41637191	      0.06897098	     18.06425911	     -0.43142217	     -9.10382874	    -20.51275541	      0.28427367	      0.36914877	      1.00917391	    -14.24324308	     -8.48072151	     33.19929912	     90.00000001	      0.00000000	      0.00000000	      0.94018382	     -9.21710732	    -18.21966317	     41.12284604	     90.00000001	      0.00000000	      0.00000000
      0.06000000	      9.69198267	     -0.96701089	     -3.96299965	     -0.95161289	      0.83959902	     -0.34385125	     15.33585616	     -2.58592801	    -17.05082971	     30.30322546	     -1.32386437	      0.52889106	     11.75682009	     -3.29044218	     -9.02494678	    -20.87122390	      1.61051704	     -9.34653712	      3.57428331	      6.38346865	      0.06238301	     18.70821557	      0.86538378	     -9.02494678	    -20.29591065	      0.32910768	     -0.48927640	      0.91214266	    -14.20672269	     -8.72126272	     32.90868233	     90.00000001	      0.00000000	      0.00000000	      1.27449960	     -9.48889604	    -17.08540710	     43.08826366	     90.00000001	      0.00000000	      0.00000000
      0.07000000	      9.62387405	     -0.69282401	     -3.59355848	     -0.93679180	      0.83686412	     -0.34446023	     15.46227938	     -2.91391513	    -17.58919301	     26.21400042	     -0.01547853	      0.45752062	     11.94947692	     -2.01925017	     -8.95698706	    -22.09714193	      1.96399571	     -9.99204392	      3.31279751	      6.35428606	      0.05781922	     19.32219562	      2.12095479	     -8.95698706	    -20.06173750	      0.28995940	     -1.24567994	      0.73303229	    -14.19050984	     -9.01279590	     32.69028595	     90.00000001	      0.00000000	      0.00000000	      1.74857043	     -9.74578728	    -16.10794019	     44.81210385	     90.00000001	      0.00000000	      0.00000000
      0.08000000	      9.54672669	     -0.39982450	     -3.30410938	     -0.92201980	      0.83384272	     -0.34487254	     15.51421638	     -3.23519666	    -18.26502191	     22.17018219	      1.18522139	      0.38694267	     12.08496411	     -0.19076814	     -8.89425148	    -23.26667558	      2.35019256	    -10.70748358	      3.15845559	      6.29858273	      0.05512545	     19.90565117	      3.31624314	     -8.89425148	    -19.83227749	      0.19934770	     -1.86245571	      0.53512363	    -14.18098940	     -9.37272065	     32.57200374	     90.00000001	      0.00000000	      0.00000000	      2.29933496	    -10.01703956	    -15.15836792	     46.37400486	     90.00000001	      0.00000000	      0.00000000
      0.09000000	      9.47299043	     -0.07918172	     -3.01060377	     -0.90712971	      0.83065851	     -0.34513108	     15.47063065	     -3.55816273	    -18.99536375	     18.29372097	      2.26955937	      0.31928566	     12.11202237	      2.19188129	     -8.82427285	    -24.38761325	      2.67201948	    -11.49459800	      3.15244144	      6.36307605	      0.05502048	     20.51703591	      4.55778672	     -8.82427285	    -19.61182943	      0.06249926	     -2.36788978	      0.21316904	    -14.17421742	     -9.85182257	     32.49403393	     90.00000001	      0.00000000	      0.00000000	      2.86895156	    -10.32460541	    -14.11948261	     47.92128627	     90.00000001	      0.00000000	      0.00000000
      0.10000000	      9.35728677	      0.27363510	     -2.78326543	     -0.89228526	      0.82723529	     -0.34539573	     15.54483545	     -3.95301762	    -19.95752465	     14.87857618	      3.23513895	      0.25968014	     12.14662725	      5.16943873	     -8.69143766	    -25.31612446	      3.04332685	    -12.54732559	      3.45970039	      6.32542148	      0.06038316	     21.34856157	      6.29750010	     -8.69143766	    -19.36924082	     -0.10566804	     -2.73996097	     -0.10307448	    -14.17828811	    -10.59277848	     32.47865024	     90.00000001	      0.00000000	      0.00000000	      3.44789724	    -10.59868802	    -13.07289281	     49.45043763	     90.00000001	      0.00000000	      0.00000000
      0.11000000	      9.08742680	      0.91349948	     -2.63245537	     -0.87771272	      0.82364471	     -0.34551642	     15.82939067	     -4.63343670	    -20.15812008	     11.91099987	      4.25324036	      0.20788616	     11.89653783	      7.27584940	     -8.65601683	    -26.06755362	      3.75924954	    -12.84538960	      3.62024252	      6.18101908	      0.06318515	     21.64968448	      6.77501048	     -8.65601683	    -18.99550912	     -0.62210080	     -3.18974259	     -0.37064987	    -14.18002551	    -10.80375645	     32.47128644	     90.00000001	      0.00000000	      0.00000000	      3.93682601	    -10.94549739	    -12.27064310	     50.97008407	     90.00000001	      0.00000000	      0.00000000
      0.12000000	      8.90434650	      1.30422649	     -2.43948756	     -0.86291847	      0.82024986	     -0.34553478	     15.97659115	     -5.02914255	    -20.53617442	      9.39115154	      5.04916497	      0.16390651	     11.53077849	      9.27490616	     -8.63089223	    -26.91626346	      4.10498464	    -13.05596076	      3.88708333	      6.11066903	      0.06784240	     21.92838249	      7.31200648	     -8.63089223	    -18.73901151	     -0.84989993	     -3.47971309	     -0.69661363	    -14.22572245	    -11.16148327	     32.50175866	     90.00000001	      0.00000000	      0.00000000	      4.44307239	    -11.20297370	    -11.42922616	     52.44288200	     90.00000001	      0.00000000	      0.00000000
      0.13000000	      8.78490278	      1.58798909	     -2.21160273	     -0.84803890	      0.81707012	     -0.34538825	     16.11175176	     -5.28010395	    -20.85082003	      7.52519362	      5.57453117	      0.13133941	     11.19643332	     11.04019180	     -8.60664928	    -27.73683164	      4.22143168	    -13.19192678	      4.37428127	      6.08885385	      0.07634561	     22.16973333	      7.85965197	     -8.60664928	    -18.56944382	     -0.98057860	     -3.75255379	     -0.99627893	    -14.25992825	    -11.61934145	     32.54832645	     90.00000001	      0.00000000	      0.00000000	      4.90595503	    -11.44924211	    -10.63266440	     53.81261117	     90.00000001	      0.00000000	      0.00000000
